<?xml version="1.0" encoding="iso-8859-1"?>
<!-- Generator: Adobe Illustrator 19.0.0, SVG Export Plug-In . SVG Version: 6.00 Build 0)  -->
<svg version="1.1" id="Capa_1" xmlns="http://www.w3.org/2000/svg" xmlns:xlink="http://www.w3.org/1999/xlink" x="0px" y="0px"
	 viewBox="0 0 512 512" style="enable-background:new 0 0 512 512;" xml:space="preserve">
<polygon style="fill:#F8ECFF;" points="445.18,250 283,250 283,390 445.18,390 446,390 446,250 "/>
<g>
	<path style="fill:#85E374;" d="M446,390v92c0,11.05-9.78,20-20.82,20H302.82c-10.97,0-19.72-8.85-19.82-19.82V390h162.18H446z"/>
	<path style="fill:#85E374;" d="M423.13,169.97c-10.11-10.9-15.21-18.84-14.79-42.51c0.84-46.95-4.3-59.63-6.27-79.63v-0.01h-78.14
		v0.01c-1.97,20-7.13,31.98-6.28,79.63c0.48,26.07-6.6,33.68-14.79,42.51C292.53,181.1,283,193.72,283,244.88V250h162.18H446v-5.12
		C446,197.18,435.64,183.44,423.13,169.97z"/>
</g>
<g>
	<path style="fill:#FED42D;" d="M393,10c11.05,0,20,8.95,20,20c0,11.04-8.96,20-20,20h-60c-10.958,0-20-8.881-20-20
		c0-11.04,8.96-20,20-20H393z"/>
	<circle style="fill:#FED42D;" cx="363" cy="320" r="30"/>
</g>
<polygon style="fill:#F8ECFF;" points="228.18,250 66,250 66,390 228.18,390 229,390 229,250 "/>
<g>
	<path style="fill:#85E374;" d="M229,390v92c0,11.05-9.78,20-20.82,20H85.82c-10.97,0-19.72-8.85-19.82-19.82V390h162.18H229z"/>
	<path style="fill:#85E374;" d="M206.13,169.97c-10.11-10.9-15.21-18.84-14.79-42.51c0.84-46.95-4.3-59.63-6.27-79.63v-0.01h-78.14
		v0.01c-1.97,20-7.13,31.98-6.28,79.63c0.48,26.07-6.6,33.68-14.79,42.51C75.53,181.1,66,193.72,66,244.88V250h162.18H229v-5.12
		C229,197.18,218.64,183.44,206.13,169.97z"/>
</g>
<g>
	<path style="fill:#FED42D;" d="M176,10c11.05,0,20,8.95,20,20c0,11.04-8.96,20-20,20h-60c-10.958,0-20-8.881-20-20
		c0-11.04,8.96-20,20-20H176z"/>
	<circle style="fill:#FED42D;" cx="146" cy="320" r="30"/>
</g>
<path d="M363,260c5.52,0,10-4.48,10-10s-4.48-10-10-10s-10,4.48-10,10S357.48,260,363,260z"/>
<path d="M302.82,512h122.36c16.706,0,30.82-13.738,30.82-30V244.88c0-50.22-11.07-66.132-25.538-81.71
	c-8.452-9.112-12.498-14.429-12.124-35.531c0.625-34.904-1.957-51.24-4.234-65.653c-0.503-3.18-0.98-6.257-1.398-9.382
	C419.448,46.722,423,38.53,423,30c0-16.542-13.458-30-30-30h-60c-16.575,0-30,13.424-30,30c0,8.848,3.833,17.012,10.29,22.612
	c-0.42,3.103-0.898,6.148-1.403,9.293c-2.28,14.23-4.866,30.359-4.234,65.739c0.404,22.017-4.571,27.382-12.121,35.523
	C283.204,176.449,273,191.765,273,244.88c0,2.739,0,233.543,0,237.391C273.149,498.664,286.526,512,302.82,512z M333,20h60
	c5.514,0,10,4.486,10,10c0,5.559-4.523,10-10,10h-60c-5.417,0-10-4.364-10-10C323,24.479,327.479,20,333,20z M293,260h30
	c5.522,0,10-4.477,10-10s-4.478-10-10-10h-29.968c0.584-45.365,9.374-54.84,17.182-63.253c8.844-9.535,17.988-19.395,17.435-49.465
	c-0.6-33.602,1.837-48.801,3.986-62.211c0.275-1.715,0.544-3.399,0.803-5.088C332.625,59.987,332.812,60,333,60h60
	c0.184,0,0.368-0.013,0.552-0.016c0.257,1.699,0.524,3.396,0.797,5.123c2.149,13.603,4.586,29.02,3.993,62.176
	c-0.454,25.589,5.267,36.346,17.461,49.493c9.571,10.305,19.451,20.961,20.154,63.225H403c-5.522,0-10,4.477-10,10s4.478,10,10,10
	h33v120H293V260z M293,400h143v82c0,5.327-5.057,10-10.82,10H302.82c-5.456,0-9.771-4.354-9.82-9.82V400z"/>
<path d="M363,280c-22.056,0-40,17.944-40,40s17.944,40,40,40s40-17.944,40-40S385.056,280,363,280z M363,340
	c-11.028,0-20-8.972-20-20s8.972-20,20-20s20,8.972,20,20S374.028,340,363,340z"/>
<path d="M146,260c5.52,0,10-4.48,10-10s-4.48-10-10-10s-10,4.48-10,10S140.48,260,146,260z"/>
<path d="M85.82,512h122.36c16.706,0,30.82-13.738,30.82-30c0-55.355,0-192.963,0-237.12c0-50.22-11.07-66.132-25.538-81.71
	c-8.452-9.112-12.498-14.429-12.124-35.531c0.625-34.904-1.957-51.24-4.234-65.653c-0.503-3.18-0.98-6.257-1.398-9.382
	C202.487,46.686,206,38.48,206,30c0-16.542-13.458-30-30-30h-60C99.425,0,86,13.424,86,30c0,8.848,3.833,17.012,10.29,22.612
	c-0.42,3.103-0.898,6.148-1.403,9.293c-2.28,14.23-4.866,30.359-4.234,65.739c0.404,22.017-4.571,27.382-12.121,35.523
	C66.204,176.449,56,191.765,56,244.88c0,24.125,0,213.734,0,237.391C56.149,498.664,69.526,512,85.82,512z M116,20h60
	c5.514,0,10,4.486,10,10c0,5.559-4.523,10-10,10h-60c-5.417,0-10-4.364-10-10C106,24.479,110.479,20,116,20z M76,260h30
	c5.522,0,10-4.477,10-10s-4.478-10-10-10H76.032c0.584-45.365,9.374-54.84,17.182-63.253c8.844-9.535,17.988-19.395,17.435-49.466
	c-0.6-33.602,1.837-48.801,3.986-62.21c0.275-1.715,0.544-3.399,0.803-5.088C115.625,59.987,115.812,60,116,60h60
	c0.184,0,0.368-0.013,0.552-0.016c0.257,1.699,0.524,3.396,0.797,5.123c2.149,13.603,4.586,29.02,3.993,62.176
	c-0.454,25.589,5.267,36.346,17.461,49.493c9.571,10.305,19.451,20.961,20.154,63.225H186c-5.522,0-10,4.477-10,10s4.478,10,10,10
	h33v120H76V260z M76,400h143v82c0,5.327-5.057,10-10.82,10H85.82c-5.456,0-9.771-4.353-9.82-9.82V400z"/>
<path d="M146,280c-22.056,0-40,17.944-40,40s17.944,40,40,40s40-17.944,40-40S168.056,280,146,280z M146,340
	c-11.028,0-20-8.972-20-20s8.972-20,20-20s20,8.972,20,20S157.028,340,146,340z"/>
<g>
</g>
<g>
</g>
<g>
</g>
<g>
</g>
<g>
</g>
<g>
</g>
<g>
</g>
<g>
</g>
<g>
</g>
<g>
</g>
<g>
</g>
<g>
</g>
<g>
</g>
<g>
</g>
<g>
</g>
</svg>
