<svg width="162" height="162" xmlns="http://www.w3.org/2000/svg">

 <g>
  <title>background</title>
  <rect fill="none" id="canvas_background" height="164" width="164" y="-1" x="-1"/>
 </g>
 <g>
  <title>Layer 1</title>
  <g id="#ffffffff">
   <path id="svg_1" d="m73.836243,10.481582c2.04,-1.87 4.63,-3.96 7.61,-2.99c4.31,1.4 7.29,5.16 9.64,8.85c2.48,4.27 4.99,8.54 6.86,13.13c6.63,12.51 15.48,23.65 24.24,34.72c8.34,10.99 12.4,25.09 11.27,38.8c-1.27,17.35 -11.27,33.93 -26.33,42.75c-16.46,10.02 -38.84,9.55 -54.69,-1.49c10.41,2.78 21.46,4.29 32.02,1.39c15.69,-3.9 28.97,-15.63 35.35,-30.42c7.01,-15.65 5.93,-34.41 -2.14,-49.46c-5.87,-9.95 -13.73,-18.62 -19.19,-28.83c-5.37,-8.29 -8,-18.69 -16.16,-24.94c-2.36,-2.05 -5.58,-2.03 -8.48,-1.51z" fill="#ffffff"/>
  </g>
  <g id="#3f2d20ff">
   <path id="svg_2" d="m62.966243,13.461582c3.2,-4.84 7.04,-9.77 12.55,-12.06c4.2,-1.88 9.17,-0.87 12.87,1.65c6.04,4.04 10.08,10.29 13.74,16.41c7.21,13.82 16.85,26.18 26.56,38.3c7.62,9.51 12.29,21.23 13.67,33.31c0.71,2.55 0.6,5.22 0.62,7.84c-0.61,16.97 -7.34,33.98 -19.81,45.74c-11.22,11.08 -26.93,17.53 -42.72,17.15c-17.14,0.2 -33.95,-7.79 -45.13,-20.69c-11.92,-13.22 -17.47,-31.61 -16.15,-49.24l0.5,-0.73c0.66,-8.1 3.25,-15.99 6.93,-23.21c4.57,-8.96 11.93,-16 17.55,-24.25c7.3,-9.42 12.55,-20.14 18.82,-30.22m10.87,-2.98c-3.39,4.59 -5.87,9.73 -8.04,14.98c-3.26,7.91 -8.35,14.81 -13.08,21.87c-5.56,8.02 -12.43,15.08 -17.42,23.49c-3.22,6.28 -5.79,13.05 -6.5,20.1c-3.23,20.25 6.35,42.2 23.64,53.33c15.85,11.04 38.23,11.51 54.69,1.49c15.06,-8.82 25.06,-25.4 26.33,-42.75c1.13,-13.71 -2.93,-27.81 -11.27,-38.8c-8.76,-11.07 -17.61,-22.21 -24.24,-34.72c-1.87,-4.59 -4.38,-8.86 -6.86,-13.13c-2.35,-3.69 -5.33,-7.45 -9.64,-8.85c-2.98,-0.97 -5.57,1.12 -7.61,2.99z" fill="#3f2d20"/>
   <path id="svg_3" d="m65.886243,116.571582c2.91,-1.81 7.06,1 6.36,4.38c-0.07,3.52 -5.1,5.09 -7.36,2.52c-2.29,-1.84 -1.49,-5.63 1,-6.9z" fill="#3f2d20"/>
   <path id="svg_4" d="m48.676243,120.111582c3.87,-2.1 8.3,3.82 4.95,6.84c-2.02,2.73 -5.92,1.5 -7.62,-0.91c-0.36,-2.33 0.16,-5.08 2.67,-5.93z" fill="#3f2d20"/>
   <path id="svg_5" d="m61.826243,134.291582c3.21,-2.82 8.54,1.84 6.36,5.41c-1,2.68 -4.99,3.67 -6.9,1.39c-2.3,-1.63 -1.78,-5.43 0.54,-6.8z" fill="#3f2d20"/>
  </g>
  <g id="#ef8829ff">
   <path id="svg_6" d="m65.796243,25.461582c2.17,-5.25 4.65,-10.39 8.04,-14.98c2.9,-0.52 6.12,-0.54 8.48,1.51c8.16,6.25 10.79,16.65 16.16,24.94c5.46,10.21 13.32,18.88 19.19,28.83c8.07,15.05 9.15,33.81 2.14,49.46c-6.38,14.79 -19.66,26.52 -35.35,30.42c-10.56,2.9 -21.61,1.39 -32.02,-1.39c-17.29,-11.13 -26.87,-33.08 -23.64,-53.33c0.71,-7.05 3.28,-13.82 6.5,-20.1c4.99,-8.41 11.86,-15.47 17.42,-23.49c4.73,-7.06 9.82,-13.96 13.08,-21.87m0.09,91.11c-2.49,1.27 -3.29,5.06 -1,6.9c2.26,2.57 7.29,1 7.36,-2.52c0.7,-3.38 -3.45,-6.19 -6.36,-4.38m-17.21,3.54c-2.51,0.85 -3.03,3.6 -2.67,5.93c1.7,2.41 5.6,3.64 7.62,0.91c3.35,-3.02 -1.08,-8.94 -4.95,-6.84m13.15,14.18c-2.32,1.37 -2.84,5.17 -0.54,6.8c1.91,2.28 5.9,1.29 6.9,-1.39c2.18,-3.57 -3.15,-8.23 -6.36,-5.41z" fill="#ef8829"/>
  </g>
 </g>
</svg>