<?xml version="1.0" encoding="iso-8859-1"?>
<!-- Generator: Adobe Illustrator 19.0.0, SVG Export Plug-In . SVG Version: 6.00 Build 0)  -->
<svg version="1.1" id="Capa_1" xmlns="http://www.w3.org/2000/svg" xmlns:xlink="http://www.w3.org/1999/xlink" x="0px" y="0px"
	 viewBox="0 0 512 512" style="enable-background:new 0 0 512 512;" xml:space="preserve">
<path style="fill:#FF4C4C;" d="M269.48,12.457l16.088,14.429c5.725,5.135,13.871,6.571,21.007,3.704l20.053-8.057
	c9.561-3.841,20.48,0.133,25.335,9.221l10.183,19.062c3.624,6.784,10.787,10.919,18.473,10.666l21.599-0.712
	c10.298-0.34,19.199,7.13,20.653,17.33l3.049,21.395c1.085,7.614,6.402,13.95,13.712,16.341l20.54,6.718
	c9.793,3.203,15.603,13.266,13.48,23.349l-4.452,21.148c-1.584,7.526,1.245,15.298,7.296,20.045l17.004,13.338
	c8.107,6.359,10.125,17.803,4.682,26.551l-11.417,18.349c-4.063,6.53-4.063,14.801,0,21.331l11.417,18.349
	c5.443,8.748,3.425,20.192-4.682,26.551l-17.004,13.338c-6.051,4.747-8.88,12.519-7.296,20.045l4.452,21.148
	c2.123,10.082-3.687,20.146-13.48,23.349l-20.54,6.718c-7.31,2.391-12.626,8.727-13.712,16.341l-3.049,21.395
	c-1.454,10.2-10.355,17.67-20.653,17.33l-21.599-0.712c-7.687-0.253-14.85,3.882-18.473,10.666l-10.183,19.062
	c-4.855,9.088-15.774,13.062-25.335,9.221l-20.053-8.057c-7.136-2.867-15.282-1.431-21.007,3.704l-16.088,14.429
	c-7.67,6.88-19.29,6.88-26.961,0l-16.088-14.429c-5.725-5.135-13.871-6.571-21.007-3.704l-20.053,8.057
	c-9.561,3.841-20.48-0.133-25.335-9.221l-10.183-19.062c-3.624-6.784-10.787-10.919-18.473-10.666l-21.599,0.712
	c-10.298,0.34-19.199-7.13-20.653-17.33l-3.049-21.395c-1.085-7.614-6.402-13.95-13.712-16.341l-20.54-6.718
	c-9.793-3.203-15.603-13.266-13.48-23.349l4.452-21.148c1.584-7.526-1.245-15.298-7.296-20.045l-17.004-13.338
	c-8.107-6.359-10.125-17.803-4.682-26.551l11.416-18.349c4.063-6.53,4.063-14.801,0-21.331l-11.416-18.349
	c-5.443-8.748-3.425-20.192,4.682-26.551l17.004-13.338c6.051-4.747,8.88-12.519,7.296-20.045l-4.452-21.148
	c-2.123-10.082,3.687-20.146,13.48-23.349l20.54-6.718c7.31-2.391,12.626-8.727,13.712-16.341L89.128,78.1
	c1.454-10.2,10.355-17.67,20.653-17.33l21.599,0.712c7.687,0.253,14.85-3.882,18.473-10.666l10.183-19.062
	c4.855-9.088,15.774-13.062,25.335-9.221l20.053,8.057c7.136,2.867,15.282,1.431,21.007-3.704l16.088-14.429
	C250.19,5.578,261.81,5.578,269.48,12.457z"/>
<path style="fill:#F33939;" d="M486.767,266.666c-4.063-6.53-4.063-14.801,0-21.331l11.417-18.349
	c5.443-8.748,3.425-20.192-4.682-26.551l-17.004-13.338c-6.051-4.747-8.88-12.519-7.296-20.045l4.452-21.148
	c2.123-10.082-3.687-20.146-13.48-23.349l-20.54-6.718c-7.31-2.391-12.626-8.727-13.711-16.341l-3.049-21.395
	c-1.454-10.2-10.355-17.67-20.653-17.33l-21.599,0.712c-7.687,0.253-14.85-3.882-18.473-10.666l-10.183-19.062
	c-4.855-9.088-15.774-13.063-25.335-9.221l-19.516,7.841c0.287,0.448,0.568,0.903,0.823,1.38l10.183,19.062
	c3.624,6.784,10.787,10.919,18.473,10.666l21.599-0.712c10.298-0.34,19.199,7.13,20.653,17.33l3.049,21.395
	c1.085,7.614,6.402,13.95,13.711,16.341l20.54,6.718c9.793,3.203,15.603,13.266,13.48,23.349l-4.452,21.148
	c-1.584,7.526,1.244,15.298,7.296,20.045l17.004,13.338c8.107,6.359,10.125,17.803,4.682,26.551l-11.417,18.349
	c-4.063,6.53-4.063,14.801,0,21.331l11.417,18.349c5.443,8.749,3.425,20.192-4.682,26.551l-17.004,13.338
	c-6.051,4.747-8.88,12.519-7.296,20.045l4.452,21.147c2.123,10.083-3.687,20.146-13.48,23.349l-20.54,6.718
	c-7.31,2.391-12.626,8.727-13.711,16.341l-3.049,21.395c-1.454,10.2-10.355,17.67-20.653,17.33l-21.599-0.712
	c-7.687-0.253-14.85,3.882-18.473,10.666l-10.183,19.062c-0.255,0.477-0.535,0.932-0.823,1.38l19.516,7.841
	c9.561,3.841,20.48-0.133,25.335-9.221l10.183-19.062c3.624-6.784,10.787-10.919,18.473-10.666l21.599,0.712
	c10.298,0.34,19.199-7.13,20.653-17.33l3.049-21.395c1.085-7.614,6.402-13.95,13.711-16.341l20.54-6.718
	c9.793-3.203,15.603-13.266,13.48-23.349l-4.452-21.147c-1.584-7.526,1.245-15.298,7.296-20.045l17.004-13.338
	c8.107-6.359,10.125-17.803,4.682-26.551L486.767,266.666z"/>
<circle style="fill:#FFB125;" cx="256" cy="256" r="187.15"/>
<path style="fill:#FF901D;" d="M256,68.853c-7.449,0-14.792,0.449-22.014,1.295C326.968,81.046,399.118,160.091,399.118,256
	s-72.15,174.954-165.132,185.851c7.222,0.846,14.565,1.295,22.014,1.295c103.358,0,187.147-83.788,187.147-187.147
	S359.358,68.853,256,68.853z"/>
<path d="M492.952,262.818c-2.616-4.205-2.616-9.43,0-13.636l11.417-18.349c7.421-11.927,4.682-27.46-6.371-36.13l-17.004-13.339
	c-3.897-3.056-5.684-7.966-4.664-12.813l4.452-21.147c2.894-13.746-4.992-27.406-18.344-31.773l-20.54-6.718
	c-4.708-1.54-8.066-5.542-8.765-10.445l-3.049-21.395c-1.981-13.908-14.089-24.035-28.104-23.583l-21.6,0.712
	c-4.953,0.16-9.475-2.449-11.809-6.817l-10.183-19.062c-6.619-12.39-21.44-17.783-34.475-12.548l-20.053,8.057
	c-4.596,1.846-9.741,0.94-13.428-2.368L274.344,7.035l0,0c-10.458-9.38-26.23-9.38-36.688,0l-16.088,14.43
	c-3.687,3.308-8.832,4.214-13.428,2.367l-20.053-8.057c-13.035-5.236-27.856,0.158-34.475,12.548l-10.183,19.061
	c-2.334,4.369-6.856,6.974-11.809,6.818l-21.6-0.712c-14.05-0.453-26.123,9.675-28.104,23.583l-3.049,21.395
	c-0.699,4.903-4.057,8.905-8.765,10.445l-20.54,6.718c-13.352,4.367-21.238,18.026-18.344,31.773l4.452,21.147
	c1.02,4.847-0.767,9.757-4.664,12.813l-17.004,13.339c-11.053,8.67-13.792,24.203-6.371,36.13l11.417,18.349
	c2.616,4.205,2.616,9.43,0,13.636L7.632,281.167c-7.421,11.927-4.682,27.46,6.371,36.13l17.004,13.339
	c3.897,3.056,5.684,7.966,4.663,12.813l-4.452,21.148c-2.894,13.746,4.992,27.406,18.344,31.773l20.54,6.718
	c4.708,1.54,8.066,5.542,8.765,10.445l3.049,21.395c1.982,13.908,14.094,24.042,28.104,23.583l21.6-0.712
	c4.957-0.165,9.475,2.45,11.809,6.817l10.183,19.062c6.619,12.39,21.441,17.786,34.475,12.548l20.053-8.057
	c4.596-1.847,9.742-0.939,13.428,2.367l16.088,14.429c5.23,4.69,11.786,7.035,18.344,7.035c6.557,0,13.116-2.346,18.344-7.035
	l16.088-14.43c3.687-3.307,8.832-4.214,13.428-2.367l20.053,8.057c13.036,5.236,27.857-0.157,34.475-12.548l10.183-19.061
	c2.334-4.369,6.851-6.987,11.809-6.818l21.6,0.712c14.04,0.451,26.123-9.676,28.104-23.583l3.049-21.395
	c0.699-4.904,4.057-8.905,8.765-10.445l20.54-6.718c13.352-4.367,21.238-18.027,18.344-31.773l-4.452-21.148
	c-1.02-4.847,0.767-9.756,4.664-12.813l17.004-13.339c11.053-8.67,13.792-24.203,6.371-36.13L492.952,262.818z M489.006,305.835
	l-17.003,13.338c-8.297,6.507-12.101,16.959-9.929,27.277l4.452,21.148c1.36,6.458-2.345,12.874-8.617,14.925l-20.54,6.718
	c-10.022,3.277-17.172,11.798-18.659,22.236l-3.049,21.395c-0.931,6.533-6.609,11.289-13.202,11.077l-21.6-0.712
	c-10.549-0.348-20.171,5.215-25.138,14.514l-10.183,19.061c-3.109,5.821-10.071,8.355-16.195,5.895l-20.053-8.057
	c-9.781-3.929-20.736-2-28.586,5.041l-16.088,14.43c-4.912,4.406-12.321,4.406-17.233,0l-16.088-14.43
	c-5.159-4.627-11.656-7.046-18.284-7.046c-3.456,0-6.949,0.659-10.303,2.006l-20.053,8.057c-6.124,2.459-13.086-0.074-16.195-5.894
	l-10.183-19.062c-4.968-9.3-14.615-14.857-25.138-14.514l-21.6,0.712c-6.606,0.208-12.271-4.545-13.202-11.077l-3.049-21.395
	c-1.487-10.439-8.637-18.959-18.658-22.236l-20.54-6.718c-6.272-2.052-9.976-8.468-8.617-14.925l4.452-21.148
	c2.172-10.317-1.632-20.769-9.928-27.276l-17.004-13.338c-5.192-4.073-6.478-11.37-2.992-16.973l11.417-18.349
	c5.57-8.952,5.57-20.075,0-29.027l-11.417-18.349c-3.486-5.603-2.199-12.899,2.992-16.972l17.003-13.338
	c8.297-6.507,12.101-16.959,9.929-27.277l-4.452-21.147c-1.36-6.458,2.345-12.874,8.617-14.925l20.54-6.718
	c10.022-3.278,17.171-11.799,18.658-22.236l3.049-21.395c0.931-6.533,6.605-11.288,13.202-11.077l21.6,0.712
	c10.531,0.324,20.17-5.215,25.138-14.514l10.183-19.061c3.11-5.821,10.071-8.355,16.195-5.895l20.053,8.057
	c9.783,3.929,20.736,1.999,28.586-5.041l16.088-14.43c4.912-4.406,12.321-4.406,17.233,0l16.088,14.429
	c7.849,7.04,18.803,8.971,28.586,5.041l20.053-8.057c6.121-2.461,13.085,0.074,16.195,5.894l10.183,19.062
	c4.968,9.299,14.605,14.847,25.138,14.514l21.6-0.712c6.59-0.222,12.271,4.545,13.202,11.077l3.049,21.395
	c1.487,10.438,8.637,18.958,18.658,22.236l20.54,6.718c6.272,2.051,9.976,8.468,8.617,14.925l-4.452,21.147
	c-2.172,10.318,1.632,20.77,9.928,27.277l17.004,13.338c5.192,4.073,6.478,11.37,2.992,16.973l-11.417,18.349
	c-5.57,8.952-5.57,20.075,0,29.027l11.417,18.349C495.485,294.466,494.198,301.762,489.006,305.835z"/>
<path d="M442.414,274.206c-3.988-0.542-7.656,2.251-8.198,6.237c-5.801,42.707-26.909,81.994-59.438,110.624
	c-32.822,28.887-75.005,44.795-118.778,44.795s-85.957-15.909-118.778-44.796c-32.529-28.629-53.637-67.916-59.438-110.624
	c-0.541-3.986-4.213-6.777-8.198-6.237c-3.986,0.541-6.779,4.212-6.237,8.198c6.272,46.18,29.09,88.655,64.249,119.599
	c35.483,31.229,81.084,48.428,128.403,48.428s92.92-17.199,128.403-48.428c35.159-30.944,57.977-73.419,64.249-119.599
	C449.194,278.418,446.401,274.747,442.414,274.206z"/>
<path d="M69.599,237.652c0.334,0.046,0.667,0.068,0.995,0.068c3.585,0,6.709-2.648,7.208-6.299
	c5.829-42.677,26.949-81.931,59.468-110.531C170.084,92.031,212.25,76.137,256,76.137c43.739,0,85.898,15.887,118.708,44.733
	c32.515,28.587,53.64,67.827,59.482,110.49c0.546,3.986,4.221,6.775,8.205,6.228c3.986-0.546,6.774-4.219,6.228-8.205
	c-6.318-46.132-29.152-88.555-64.297-119.454c-35.47-31.185-81.044-48.36-128.326-48.36c-47.293,0-92.876,17.182-128.35,48.381
	c-35.149,30.913-57.978,73.352-64.282,119.498C62.824,233.434,65.613,237.107,69.599,237.652z"/>
<path d="M200.349,370.039c4.047,0,8.093-2.023,9.828-5.492L316.254,152.97c0.578-1.445,0.867-2.891,0.867-4.625
	c0-6.648-6.358-10.983-12.139-10.983c-3.469,0-6.937,1.444-8.672,5.202L190.232,355.009c-0.867,1.445-1.156,2.891-1.156,4.336
	C189.076,364.547,193.701,370.039,200.349,370.039z"/>
<path d="M227.519,226.964v-42.778c0-26.013-17.054-35.552-39.02-35.552c-22.256,0-39.021,9.539-39.021,35.552v42.778
	c0,26.014,16.765,35.552,39.021,35.552C210.465,262.516,227.519,252.978,227.519,226.964z M206.708,226.964
	c0,11.851-6.937,17.053-18.209,17.053c-11.273,0-17.921-5.202-17.921-17.053v-42.778c0-11.851,6.648-17.053,17.921-17.053
	c11.272,0,18.209,5.202,18.209,17.053V226.964z"/>
<path d="M316.254,360.79c21.967,0,39.02-9.539,39.02-35.552V282.46c0-26.014-17.053-35.552-39.02-35.552
	c-22.256,0-39.02,9.538-39.02,35.552v42.778C277.234,351.251,293.998,360.79,316.254,360.79z M298.333,282.46
	c0-11.851,6.649-17.053,17.921-17.053s18.209,5.202,18.209,17.053v42.778c0,11.851-6.937,17.053-18.209,17.053
	c-11.272,0-17.921-5.202-17.921-17.053L298.333,282.46L298.333,282.46z"/>
<g>
</g>
<g>
</g>
<g>
</g>
<g>
</g>
<g>
</g>
<g>
</g>
<g>
</g>
<g>
</g>
<g>
</g>
<g>
</g>
<g>
</g>
<g>
</g>
<g>
</g>
<g>
</g>
<g>
</g>
</svg>
