<?xml version="1.0" encoding="iso-8859-1"?>
<!-- Generator: Adobe Illustrator 19.0.0, SVG Export Plug-In . SVG Version: 6.00 Build 0)  -->
<svg version="1.1" id="Capa_1" xmlns="http://www.w3.org/2000/svg" xmlns:xlink="http://www.w3.org/1999/xlink" x="0px" y="0px"
	 viewBox="0 0 512 512" style="enable-background:new 0 0 512 512;" xml:space="preserve">
<rect x="19.263" y="7.604" style="fill:#467EB7;" width="139.913" height="496.792"/>
<rect x="186.044" y="173.299" style="fill:#38C183;" width="139.913" height="331.097"/>
<rect x="352.824" y="307.889" style="fill:#E05F5F;" width="139.913" height="196.507"/>
<path style="fill:#FFD488;" d="M258.669,404.906c0,54.951-44.539,99.49-99.49,99.49c-3.995,0-7.928-0.233-11.791-0.7
	c-12.562-1.48-24.414-5.303-35.09-11.021c-9.774-5.232-18.574-12.045-26.036-20.105c-14.823-15.948-24.454-36.763-26.249-59.787
	c-0.213-2.595-0.314-5.221-0.314-7.878c0-54.941,44.539-99.48,99.48-99.48c2.656,0,5.282,0.101,7.878,0.314
	c23.025,1.795,43.839,11.426,59.787,26.249c8.06,7.462,14.873,16.262,20.105,26.036c5.718,10.676,9.54,22.528,11.021,35.09
	C258.435,396.977,258.669,400.921,258.669,404.906z"/>
<g>
	<path style="fill:#F9C662;" d="M226.843,331.989L86.261,472.571c-14.823-15.948-24.454-36.763-26.249-59.787L167.056,305.74
		C190.081,307.535,210.895,317.166,226.843,331.989z"/>
	<path style="fill:#F9C662;" d="M257.969,393.115L147.387,503.697c-12.562-1.48-24.414-5.303-35.09-11.021l134.651-134.651
		C252.666,368.701,256.489,380.553,257.969,393.115z"/>
</g>
<path d="M19.265,81.381c4.199,0,7.604-3.405,7.604-7.604V15.208h124.705v265.398c0,4.199,3.405,7.604,7.604,7.604
	c4.199,0,7.604-3.405,7.604-7.604V7.604c0-4.199-3.405-7.604-7.604-7.604H19.265c-4.199,0-7.604,3.405-7.604,7.604v66.173
	C11.661,77.976,15.066,81.381,19.265,81.381z"/>
<path d="M93.277,496.792H26.869V99.124c0-4.199-3.405-7.604-7.604-7.604s-7.604,3.405-7.604,7.604v405.272
	c0,4.199,3.405,7.604,7.604,7.604h74.012c4.199,0,7.604-3.405,7.604-7.604S97.477,496.792,93.277,496.792z"/>
<path d="M186.044,293.279c4.199,0,7.604-3.405,7.604-7.604V180.906h70.971c4.199,0,7.604-3.405,7.604-7.604
	c0-4.199-3.405-7.604-7.604-7.604h-78.575c-4.199,0-7.604,3.405-7.604,7.604v112.372
	C178.44,289.874,181.844,293.279,186.044,293.279z"/>
<path d="M325.956,165.698h-35.989c-4.199,0-7.604,3.405-7.604,7.604c0,4.199,3.405,7.604,7.604,7.604h28.385v315.886h-96.315
	c-4.199,0-7.604,3.405-7.604,7.604s3.405,7.604,7.604,7.604h103.919c4.199,0,7.604-3.405,7.604-7.604V173.302
	C333.56,169.103,330.156,165.698,325.956,165.698z"/>
<path d="M492.735,418.996c4.199,0,7.604-3.405,7.604-7.604V307.884c0-4.199-3.405-7.604-7.604-7.604H352.822
	c-4.199,0-7.604,3.405-7.604,7.604v196.512c0,4.199,3.405,7.604,7.604,7.604h139.913c4.199,0,7.604-3.405,7.604-7.604V436.74
	c0-4.199-3.405-7.604-7.604-7.604s-7.604,3.405-7.604,7.604v60.052H360.426V315.488h124.705v95.903
	C485.131,415.592,488.535,418.996,492.735,418.996z"/>
<path d="M177.527,364.041c4.438,3.698,6.881,8.494,6.881,13.507c0,4.199,3.405,7.604,7.604,7.604c4.199,0,7.604-3.405,7.604-7.604
	c0-17.033-14.161-31.251-32.835-34.337v-3.97c0-4.199-3.405-7.604-7.604-7.604c-4.199,0-7.604,3.405-7.604,7.604v3.97
	c-18.674,3.086-32.835,17.305-32.835,34.337s14.161,31.251,32.835,34.337v39.23c-4.042-1.005-7.722-2.818-10.746-5.337
	c-4.438-3.698-6.881-8.494-6.881-13.506c0-4.199-3.405-7.604-7.604-7.604s-7.604,3.405-7.604,7.604
	c0,17.033,14.161,31.251,32.835,34.337v3.97c0,4.199,3.405,7.604,7.604,7.604c4.199,0,7.604-3.405,7.604-7.604v-3.97
	c18.674-3.086,32.835-17.305,32.835-34.337s-14.161-31.251-32.835-34.337v-39.23C170.825,359.71,174.504,361.522,177.527,364.041z
	 M140.828,391.054c-4.438-3.698-6.881-8.494-6.881-13.507c0-5.013,2.443-9.809,6.881-13.507c3.023-2.519,6.704-4.332,10.746-5.337
	v37.686C147.532,395.387,143.852,393.574,140.828,391.054z M177.527,418.766c4.438,3.698,6.881,8.494,6.881,13.507
	c0,5.013-2.443,9.808-6.881,13.506c-3.023,2.519-6.704,4.332-10.746,5.337v-37.686C170.825,414.434,174.504,416.247,177.527,418.766
	z"/>
<path d="M266.267,404.911c0-59.049-48.04-107.09-107.089-107.09s-107.09,48.04-107.09,107.09S100.129,512,159.178,512
	S266.267,463.96,266.267,404.911z M159.178,496.792c-50.664,0-91.881-41.217-91.881-91.881s41.218-91.882,91.881-91.882
	s91.881,41.219,91.881,91.882S209.842,496.792,159.178,496.792z"/>
<g>
</g>
<g>
</g>
<g>
</g>
<g>
</g>
<g>
</g>
<g>
</g>
<g>
</g>
<g>
</g>
<g>
</g>
<g>
</g>
<g>
</g>
<g>
</g>
<g>
</g>
<g>
</g>
<g>
</g>
</svg>
