<?xml version="1.0" encoding="iso-8859-1"?>
<!-- Generator: Adobe Illustrator 19.0.0, SVG Export Plug-In . SVG Version: 6.00 Build 0)  -->
<svg version="1.1" id="Capa_1" xmlns="http://www.w3.org/2000/svg" xmlns:xlink="http://www.w3.org/1999/xlink" x="0px" y="0px"
	 viewBox="0 0 512 512" style="enable-background:new 0 0 512 512;" xml:space="preserve">
<circle style="fill:#FDD0AB;" cx="368.219" cy="175.843" r="24.047"/>
<g>
	<circle style="fill:#FEE2CA;" cx="143.781" cy="175.843" r="24.047"/>
	<circle style="fill:#FEE2CA;" cx="256" cy="135.765" r="112.219"/>
</g>
<path style="fill:#FDD0AB;" d="M280.047,239.969c-61.977,0-112.219-50.242-112.219-112.219c0-45.077,26.582-83.939,64.922-101.786
	c-50.818,10.708-88.969,55.797-88.969,109.801c0,61.977,50.242,112.219,112.219,112.219c16.9,0,32.923-3.743,47.297-10.433
	C295.795,239.131,288.02,239.969,280.047,239.969z"/>
<path style="fill:#F56C6C;" d="M207.906,7.515h96.188c35.415,0,64.125,28.71,64.125,64.125v40.078H143.781V71.64
	C143.781,36.225,172.491,7.515,207.906,7.515z"/>
<path style="fill:#DB4D4D;" d="M239.969,7.515h-32.063c-35.415,0-64.125,28.71-64.125,64.125v40.078h32.063V71.64
	C175.843,36.225,204.554,7.515,239.969,7.515z"/>
<path style="fill:#F2EDEC;" d="M256,7.515L256,7.515c35.415,0,64.125,28.71,64.125,64.125v40.078h-128.25V71.64
	C191.875,36.225,220.585,7.515,256,7.515z"/>
<path style="fill:#FBDC40;" d="M336.157,159.812H175.843c-17.708,0-32.063-14.355-32.063-32.063v-16.031h224.438v16.031
	C368.219,145.457,353.864,159.812,336.157,159.812z"/>
<path style="fill:#FAD000;" d="M175.843,127.75v-16.031h-32.063v16.031c0,17.708,14.355,32.063,32.063,32.063h32.063
	C190.198,159.812,175.843,145.457,175.843,127.75z"/>
<path style="fill:#BDA39E;" d="M247.984,243.977h-32.063V219.93h32.063c4.427,0,8.016,3.589,8.016,8.016v8.016
	C256,240.387,252.411,243.977,247.984,243.977z"/>
<path style="fill:#FEE2CA;" d="M384.25,504.485H127.75V296.078c0-17.708,14.355-32.063,32.063-32.063h192.376
	c17.708,0,32.063,14.355,32.063,32.063V504.485z"/>
<path style="fill:#F56C6C;" d="M352.188,264.016h-64.125L256,320.125l-32.063-56.11h-64.125c-17.708,0-32.063,14.355-32.063,32.063
	v208.407H384.25V296.078C384.25,278.371,369.895,264.016,352.188,264.016z"/>
<g>
	<polygon style="fill:#F2EDEC;" points="320.125,296.078 256,320.125 288.063,264.016 320.125,264.016 	"/>
	<polygon style="fill:#F2EDEC;" points="191.875,296.078 256,320.125 223.937,264.016 191.875,264.016 	"/>
</g>
<polygon style="fill:#956B64;" points="376.235,504.485 127.75,504.485 127.75,384.25 191.875,352.188 320.125,352.188 
	376.235,384.25 "/>
<rect x="368.219" y="336.157" style="fill:#F2EDEC;" width="128.25" height="168.329"/>
<rect x="368.219" y="336.157" style="fill:#E4DAD8;" width="24.047" height="168.329"/>
<path style="fill:#FBDC40;" d="M127.75,344.172H79.656l-64.125,56.11v104.204h176.344V400.282L127.75,344.172z M127.75,408.297
	H79.656V384.25h48.094V408.297z"/>
<polygon style="fill:#FAD000;" points="103.703,344.172 79.656,344.172 15.53,400.282 15.53,504.485 39.577,504.485 39.577,400.282 
	"/>
<path d="M136.588,206.58c0.088,0.021,0.175,0.028,0.264,0.046c3.208,18.623,19.466,32.841,38.992,32.841h32.564v4.509
	c0,4.15,3.364,7.515,7.515,7.515h32.063c8.564,0,15.53-6.967,15.53-15.53v-8.016c0-8.564-6.967-15.53-15.53-15.53h-32.063
	c-4.151,0-7.515,3.365-7.515,7.515v4.509h-32.564c-13.536,0-24.548-11.013-24.548-24.548v-6.008
	c4.729,8.504,10.518,16.475,17.305,23.721c2.993,3.194,8.222,3.103,11.12-0.167c2.535-2.862,2.461-7.32-0.15-10.108
	c-12.369-13.205-20.963-29.15-25.214-46.371c6.193,4.022,13.57,6.367,21.488,6.367h160.313c7.916,0,15.291-2.346,21.483-6.364
	c-9.728,39.557-41.881,70.694-83.54,77.95c-3.979,0.692-6.759,4.562-6.135,8.554c0.641,4.099,4.621,6.965,8.714,6.253
	c32.52-5.664,59.983-24.047,77.684-49.528c4.297,2.101,9.035,3.214,13.856,3.214c17.403,0,31.562-14.159,31.562-31.562
	c0-14.689-10.325-27.461-24.413-30.741c0.237-3.085,0.366-6.197,0.366-9.337V71.64C375.734,32.138,343.596,0,304.094,0h-96.188
	c-39.502,0-71.64,32.138-71.64,71.64v73.549c-14.033,3.424-24.047,16.043-24.047,30.655
	C112.219,190.593,122.24,203.233,136.588,206.58z M223.436,227.444h24.548c0.276,0,0.501,0.224,0.501,0.501v8.016
	c0,0.277-0.225,0.501-0.501,0.501h-24.548V227.444z M336.157,152.297H175.843c-13.536,0-24.548-11.013-24.548-24.548v-8.517h209.409
	v8.517C360.704,141.285,349.693,152.297,336.157,152.297z M384.751,175.843c0,9.116-7.417,16.532-16.532,16.532
	c-2.074,0-4.113-0.396-6.021-1.14c5.052-9.696,8.809-20.152,11.066-31.129C379.967,162.263,384.751,168.605,384.751,175.843z
	 M304.094,15.029c31.215,0,56.611,25.396,56.611,56.611v32.564H327.64V71.64c0-7.264-1.085-14.436-3.226-21.314
	c-1.232-3.963-5.441-6.179-9.408-4.943c-3.963,1.233-6.175,5.446-4.943,9.408c1.691,5.431,2.548,11.1,2.548,16.848v32.564H199.389
	V71.64c0-31.215,25.396-56.611,56.611-56.611c13.48,0,26.537,4.817,36.767,13.563c3.153,2.697,7.898,2.326,10.595-0.828
	c2.697-3.154,2.327-7.898-0.828-10.596c-0.862-0.736-1.741-1.448-2.633-2.14C299.901,15.029,304.094,15.029,304.094,15.029z
	 M151.296,71.64c0-31.215,25.396-56.611,56.611-56.611h4.268C195.27,28.146,184.36,48.637,184.36,71.64v32.564h-33.065V71.64z
	 M136.266,161.119v29.46c-5.454-2.76-9.018-8.368-9.018-14.735C127.249,169.499,130.854,163.88,136.266,161.119z"/>
<path d="M214.158,171.675c-1.739-2.545-4.877-3.839-7.902-3.157c-3.004,0.677-5.32,3.176-5.78,6.22
	c-0.459,3.039,1.061,6.132,3.73,7.642c2.81,1.59,6.43,1.169,8.8-1.022C215.67,178.897,216.194,174.695,214.158,171.675z"/>
<path d="M297.842,180.012c3.666,5.364,12.242,3.798,13.605-2.625c1.413-6.659-6.466-11.6-11.883-7.529
	C296.444,172.199,295.653,176.765,297.842,180.012z"/>
<path d="M496.47,328.642H391.765v-32.564c0-21.823-17.755-39.577-39.577-39.577H159.812c-21.823,0-39.577,17.755-39.577,39.577
	v40.579H79.656c-1.82,0-3.578,0.66-4.948,1.859l-64.125,56.11c-1.631,1.428-2.567,3.489-2.567,5.656v104.204
	c0,4.15,3.364,7.515,7.515,7.515H496.47c4.151,0,7.515-3.365,7.515-7.515V336.157C503.984,332.006,500.621,328.642,496.47,328.642z
	 M376.736,296.078v32.564h-8.517c-4.151,0-7.515,3.365-7.515,7.515v27.92l-33.065-16.532v-51.466V271.53h24.548
	C365.724,271.53,376.736,282.543,376.736,296.078z M196.822,394.626l-26.553-23.233l23.38-11.69h124.703l42.353,21.176v116.092
	H199.389v-96.689C199.389,398.115,198.454,396.054,196.822,394.626z M256,304.979l-19.113-33.448h38.227L256,304.979z
	 M253.361,327.161c1.689,0.631,3.588,0.629,5.278,0l53.971-20.24v37.752H199.389v-37.751L253.361,327.161z M312.611,271.53v19.341
	l-39.758,14.909l19.571-34.25H312.611z M219.576,271.53l19.571,34.25l-39.758-14.909V271.53H219.576z M159.812,271.53h24.548v24.548
	v51.466l-26.31,13.156l-22.785-19.937v-44.684C135.264,282.543,146.276,271.53,159.812,271.53z M23.045,496.971v-93.279
	l59.434-52.005h42.446l59.435,52.005v93.279H23.045z M488.955,496.971h-112.72h-0.501V343.671h113.221V496.971z"/>
<path d="M408.297,375.734h48.094c4.151,0,7.515-3.365,7.515-7.515s-3.364-7.515-7.515-7.515h-48.094
	c-4.151,0-7.515,3.365-7.515,7.515S404.146,375.734,408.297,375.734z"/>
<path d="M392.266,407.796h80.157c4.151,0,7.515-3.365,7.515-7.515s-3.364-7.515-7.515-7.515h-80.157
	c-4.151,0-7.515,3.365-7.515,7.515S388.115,407.796,392.266,407.796z"/>
<path d="M392.266,439.859h80.157c4.151,0,7.515-3.365,7.515-7.515s-3.364-7.515-7.515-7.515h-80.157
	c-4.151,0-7.515,3.365-7.515,7.515S388.115,439.859,392.266,439.859z"/>
<path d="M392.266,471.922h24.047c4.151,0,7.515-3.365,7.515-7.515s-3.364-7.515-7.515-7.515h-24.047
	c-4.151,0-7.515,3.365-7.515,7.515S388.115,471.922,392.266,471.922z"/>
<path d="M456.391,456.892H440.36c-4.151,0-7.515,3.365-7.515,7.515s3.364,7.515,7.515,7.515h16.031c4.151,0,7.515-3.365,7.515-7.515
	S460.543,456.892,456.391,456.892z"/>
<path d="M127.75,376.736H79.656c-4.151,0-7.515,3.365-7.515,7.515v24.047c0,4.15,3.364,7.515,7.515,7.515h48.094
	c4.151,0,7.515-3.365,7.515-7.515V384.25C135.264,380.1,131.901,376.736,127.75,376.736z M120.235,400.783H87.17v-9.018h33.065
	V400.783z"/>
<g>
</g>
<g>
</g>
<g>
</g>
<g>
</g>
<g>
</g>
<g>
</g>
<g>
</g>
<g>
</g>
<g>
</g>
<g>
</g>
<g>
</g>
<g>
</g>
<g>
</g>
<g>
</g>
<g>
</g>
</svg>
