<?xml version="1.0" encoding="iso-8859-1"?>
<!-- Generator: Adobe Illustrator 19.0.0, SVG Export Plug-In . SVG Version: 6.00 Build 0)  -->
<svg version="1.1" id="Capa_1" xmlns="http://www.w3.org/2000/svg" xmlns:xlink="http://www.w3.org/1999/xlink" x="0px" y="0px"
	 viewBox="0 0 512.003 512.003" style="enable-background:new 0 0 512.003 512.003;" xml:space="preserve">
<g>
	<path style="fill:#FD4A4A;" d="M117.43,156.147h277.144c13.141,0,23.892,10.752,23.892,23.891v10.998H93.537v-10.998
		C93.537,166.897,104.289,156.147,117.43,156.147z"/>
	<path style="fill:#5F4A3E;" d="M402.465,191.036v10.998c0,13.141-10.752,23.892-23.892,23.892H277.846v173.172h27.433
		c15.67,0,28.491,12.82,28.491,28.49v9.449H178.233v-9.449c0-15.668,12.821-28.49,28.49-28.49c9.145,0,18.289,0,27.434,0V225.927
		H133.43c-13.141,0-23.893-10.752-23.893-23.892v-10.998h292.928V191.036z"/>
	<g>
		<path style="fill:#FD4A4A;" d="M10,257.952h97.047c21.187,0,38.521,11.447,38.521,25.44l0,0c0,13.99-17.334,25.438-38.521,25.438
			H48.521C27.335,308.829,10,297.382,10,283.392V257.952z"/>
		<path style="fill:#FD4A4A;" d="M502.002,257.952h-97.047c-21.186,0-38.52,11.447-38.52,25.44l0,0
			c0,13.99,17.334,25.438,38.52,25.438h58.526c21.186,0,38.521-11.447,38.521-25.438V257.952z"/>
	</g>
	<g>
		<polygon style="fill:#F0F2F4;" points="288.158,74.964 339.767,74.964 334.248,156.147 293.677,156.147 		"/>
		<polygon style="fill:#F0F2F4;" points="172.236,74.964 223.844,74.964 218.325,156.147 177.754,156.147 		"/>
	</g>
	<g>
		<polygon style="fill:#FFE293;" points="337.008,115.556 334.248,156.147 293.677,156.147 290.918,115.556 		"/>
		<polygon style="fill:#FFE293;" points="221.085,115.556 218.325,156.147 177.754,156.147 174.995,115.556 174.995,115.556 		"/>
	</g>
</g>
<path d="M107.047,247.952H20v-62.68c0-5.522-4.477-10-10-10c-5.522,0-10,4.478-10,10v98.119l0,0
	c0,19.871,21.313,35.438,48.521,35.438h19.263v108.209H42.285c-5.522,0-10,4.478-10,10c0,5.522,4.478,10,10,10h70.998
	c5.522,0,10-4.478,10-10c0-5.522-4.478-10-10-10H87.784V318.829h19.263c27.208,0,48.521-15.566,48.521-35.438
	C155.567,263.519,134.255,247.952,107.047,247.952z M107.047,298.829H48.521c-16.324,0-28.521-8.15-28.521-15.438v-15.44h87.047
	c16.323,0,28.521,8.151,28.521,15.44C135.567,290.679,123.37,298.829,107.047,298.829z"/>
<path d="M502.002,175.272c-5.523,0-10,4.478-10,10v62.68h-87.047c-27.207,0-48.52,15.566-48.52,35.44
	c0,19.871,21.313,35.438,48.52,35.438h19.264v108.209H398.72c-5.522,0-10,4.478-10,10c0,5.522,4.478,10,10,10h70.997
	c5.522,0,10-4.478,10-10c0-5.522-4.478-10-10-10h-25.498v-108.21h19.263c27.208,0,48.521-15.566,48.521-35.438l0,0v-98.119
	C512.002,179.75,507.525,175.272,502.002,175.272z M492.002,283.392c0,7.287-12.197,15.438-28.521,15.438h-58.526
	c-16.323,0-28.52-8.15-28.52-15.438c0-7.288,12.196-15.44,28.52-15.44h87.047V283.392z"/>
<path d="M331.942,201.036c5.522,0,10-4.477,10-10c0-5.522-4.478-10-10-10h-0.475c-5.522,0-10,4.478-10,10c0,5.523,4.478,10,10,10
	H331.942z"/>
<path d="M249.23,427.038h-0.475c-5.523,0-10,4.478-10,10c0,5.522,4.477,10,10,10h0.475c5.523,0,10-4.478,10-10
	C259.23,431.516,254.753,427.038,249.23,427.038z"/>
<path d="M343.759,427.144c-0.24-21.018-17.404-38.045-38.479-38.045h-17.433V235.927h90.728c18.688,0,33.892-15.204,33.892-33.892
	v-0.998h6c5.522,0,10-4.477,10-10v-10.998c0-18.688-15.204-33.891-33.892-33.891h-49.623l4.793-70.506
	c0.189-2.763-0.778-5.48-2.67-7.505c-1.891-2.024-4.537-3.173-7.307-3.173H288.16c-2.77,0-5.416,1.148-7.307,3.173
	c-1.892,2.024-2.858,4.742-2.67,7.505l4.793,70.506h-53.947l4.793-70.506c0.188-2.763-0.778-5.48-2.67-7.505
	c-1.891-2.024-4.537-3.173-7.307-3.173h-51.607c-2.77,0-5.416,1.148-7.307,3.173c-1.892,2.024-2.858,4.741-2.67,7.505l4.792,70.506
	h-49.622c-18.688,0-33.893,15.203-33.893,33.891v10.998c0,5.523,4.478,10,10,10h6v0.998c0,18.688,15.204,33.892,33.893,33.892
	h90.728v153.172h-17.434c-21.224,0-38.49,17.267-38.49,38.49v9.449c0,5.522,4.478,10,10,10h41.439l0,0c5.522,0,10-4.478,10-10
	c0-5.522-4.478-10-10-10l0,0h-31.431c0.293-9.941,8.471-17.939,18.482-17.939h27.434c5.522,0,10-4.478,10-10V225.927
	c0-5.522-4.478-10-10-10H133.431c-7.66,0-13.893-6.232-13.893-13.892v-0.998h160.213l0,0l0,0c5.522,0,10-4.477,10-10
	c0-5.522-4.478-10-10-10l0,0l0,0H103.538v-0.998c0-7.659,6.232-13.891,13.893-13.891l0,0l0,0l0,0h277.144l0,0
	c7.66,0,13.892,6.232,13.892,13.891v0.998l0,0h-47.438l0,0c-5.522,0-10,4.478-10,10c0,5.523,4.478,10,10,10h31.438l0,0v0.998
	c0,7.66-6.232,13.892-13.892,13.892H277.847c-5.522,0-10,4.478-10,10v173.172c0,5.522,4.478,10,10,10h27.433
	c10.012,0,18.19,7.998,18.483,17.939l0,0h-22.814c-5.522,0-10,4.478-10,10c0,5.522,4.478,10,10,10l0,0h41.439l0,0
	c5.522,0,10-4.478,10-10C352.388,431.982,348.631,427.813,343.759,427.144z M329.064,84.964l-1.399,20.592h-27.402l-1.4-20.592
	C298.863,84.964,329.064,84.964,329.064,84.964z M213.142,84.964l-1.399,20.592H184.34l-1.399-20.592
	C182.941,84.964,213.142,84.964,213.142,84.964z M187.099,146.147l-1.399-20.592h24.683l-1.399,20.592H187.099z M303.022,146.147
	l-1.4-20.592h24.684l-1.4,20.592H303.022z"/>
<g>
</g>
<g>
</g>
<g>
</g>
<g>
</g>
<g>
</g>
<g>
</g>
<g>
</g>
<g>
</g>
<g>
</g>
<g>
</g>
<g>
</g>
<g>
</g>
<g>
</g>
<g>
</g>
<g>
</g>
</svg>
