<svg width="512" height="512" xmlns="http://www.w3.org/2000/svg">

 <g>
  <title>background</title>
  <rect fill="none" id="canvas_background" height="402" width="582" y="-1" x="-1"/>
 </g>
 <g>
  <title>Layer 1</title>
  <g id="svg_1">
   <path id="svg_2" fill="#E7ECED" d="m256,314.062c26.286,0 47.505,21.219 47.505,47.505c0,26.286 -21.219,47.505 -47.505,47.505c-26.286,0 -47.505,-21.219 -47.505,-47.505c0,-26.286 21.219,-47.505 47.505,-47.505z"/>
   <rect id="svg_3" fill="#E7ECED" height="174.186" width="73.897" y="102.928" x="219.052"/>
  </g>
  <path id="svg_4" fill="#FFD311" d="m256,55.423c110.74,0 200.577,89.838 200.577,200.577s-89.837,200.577 -200.577,200.577s-200.577,-89.837 -200.577,-200.577s89.837,-200.577 200.577,-200.577zm36.948,221.69l0,-174.185l-73.897,0l0,174.186l73.897,0l0,-0.001zm10.557,84.454c0,-26.286 -21.219,-47.505 -47.505,-47.505c-26.286,0 -47.505,21.219 -47.505,47.505c0,26.286 21.219,47.505 47.505,47.505c26.286,0 47.505,-21.219 47.505,-47.505z"/>
  <path id="svg_5" fill="#ffd311" d="m256,7.918c137.026,0 248.082,111.056 248.082,248.082s-111.056,248.082 -248.082,248.082s-248.082,-111.056 -248.082,-248.082s111.056,-248.082 248.082,-248.082zm200.577,248.082c0,-110.74 -89.838,-200.577 -200.577,-200.577s-200.577,89.837 -200.577,200.577s89.837,200.577 200.577,200.577s200.577,-89.837 200.577,-200.577z"/>
  <path id="svg_6" fill="#ffd311" d="m55.423,256c0,110.74 89.838,200.577 200.577,200.577l0,-47.505c-26.286,0 -47.505,-21.219 -47.505,-47.505c0,-26.286 21.219,-47.505 47.505,-47.505l0,-36.948l-36.948,0l0,-174.186l36.948,0l0,-47.505c-110.74,0 -200.577,89.837 -200.577,200.577z"/>
  <path id="svg_7" fill="#ffd311" d="m55.423,256c0,-110.74 89.837,-200.577 200.577,-200.577l0,-47.505c-137.026,0 -248.082,111.056 -248.082,248.082s111.056,248.082 248.082,248.082l0,-47.505c-110.74,0 -200.577,-89.837 -200.577,-200.577z"/>
  <path id="svg_8" d="m256,512c-68.386,0 -132.676,-26.627 -181.024,-74.976s-74.976,-112.638 -74.976,-181.024s26.627,-132.676 74.976,-181.024s112.638,-74.976 181.024,-74.976s132.676,26.627 181.025,74.976c48.348,48.348 74.975,112.638 74.975,181.024s-26.627,132.676 -74.975,181.024c-48.349,48.349 -112.639,74.976 -181.025,74.976zm0,-496.165c-64.157,0 -124.47,24.98 -169.828,70.337s-70.337,105.671 -70.337,169.828s24.98,124.47 70.337,169.828s105.671,70.337 169.828,70.337c64.156,0 124.469,-24.98 169.828,-70.337c45.358,-45.358 70.337,-105.671 70.337,-169.828s-24.979,-124.47 -70.337,-169.828c-45.359,-45.357 -105.672,-70.337 -169.828,-70.337z"/>
  <path id="svg_9" d="m256,464.495c-114.965,0 -208.495,-93.53 -208.495,-208.495s93.53,-208.495 208.495,-208.495s208.495,93.53 208.495,208.495s-93.53,208.495 -208.495,208.495zm0,-401.155c-106.233,0 -192.66,86.427 -192.66,192.66s86.427,192.66 192.66,192.66s192.66,-86.427 192.66,-192.66s-86.427,-192.66 -192.66,-192.66z"/>
  <path id="svg_10" d="m300.866,285.031l-89.732,0l0,-190.021l89.732,0l0,190.021zm-73.897,-15.835l58.062,0l0,-158.351l-58.062,0l0,158.351z"/>
  <path id="svg_11" d="m256,416.99c-30.561,0 -55.423,-24.862 -55.423,-55.423s24.862,-55.423 55.423,-55.423c30.56,0 55.423,24.862 55.423,55.423s-24.863,55.423 -55.423,55.423zm0,-95.011c-21.829,0 -39.588,17.758 -39.588,39.588s17.758,39.588 39.588,39.588s39.588,-17.758 39.588,-39.588s-17.759,-39.588 -39.588,-39.588z"/>
  <g id="svg_15"/>
  <g id="svg_16"/>
  <g id="svg_17"/>
  <g id="svg_18"/>
  <g id="svg_19"/>
  <g id="svg_20"/>
  <g id="svg_21"/>
  <g id="svg_22"/>
  <g id="svg_23"/>
  <g id="svg_24"/>
  <g id="svg_25"/>
  <g id="svg_26"/>
  <g id="svg_27"/>
  <g id="svg_28"/>
  <g id="svg_29"/>
 </g>
</svg>