<svg width="470" height="470" xmlns="http://www.w3.org/2000/svg">

 <g>
  <title>background</title>
  <rect fill="none" id="canvas_background" height="402" width="582" y="-1" x="-1"/>
 </g>
 <g>
  <title>Layer 1</title>
  <g id="svg_1">
   <g id="svg_2">
    <path id="svg_3" fill="#ff0000" d="m170,430l-125,30l37.5,-83.398c-38.598,-38.907 -62.5,-92.5 -62.5,-151.602c0,-118.701 96.299,-215 215,-215s215,96.299 215,215s-96.299,215 -215,215c-22.597,0 -44.502,-3.603 -65,-10z"/>
   </g>
   <g id="svg_4">
    <g id="XMLID_21_">
     <path id="svg_5" fill="#FFFFFF" d="m342.002,282.598l-49.404,-49.497c-3.994,-3.901 -10.293,-3.901 -14.199,0l-21.201,21.196l-56.597,-56.499l21.201,-21.196c3.896,-3.901 3.896,-10.303 0,-14.199l-49.502,-49.503c-3.901,-3.901 -10.2,-3.901 -14.102,0l-45.996,46.001c0,0 5.596,43.896 72.798,111.099c67.1,67.197 111.104,72.695 111.104,72.695l45.898,-45.898c3.994,-3.897 3.994,-10.293 0,-14.199z"/>
     <g id="svg_6">
      <path id="svg_7" fill="#231F20" d="m235,0c-124.065,0 -225,100.935 -225,225c0,57.486 21.471,111.785 60.607,153.666l-34.727,77.233c-1.564,3.479 -1.013,7.544 1.42,10.481c1.925,2.323 4.762,3.62 7.7,3.62c0.776,0 1.559,-0.091 2.334,-0.277l122.35,-29.364c21.39,6.397 43.351,9.64 65.316,9.64c124.065,0 225,-100.935 225,-225s-100.934,-224.999 -225,-224.999zm0,430c-20.615,0 -41.24,-3.144 -61.317,-9.333c-1.431,-0.585 -2.799,-0.765 -3.883,-0.765l0,0.122c-0.716,0.014 -1.431,0.083 -2.134,0.253l-105.192,25.245l29.146,-64.82c1.697,-3.775 0.894,-8.206 -2.021,-11.144c-38.433,-38.739 -59.599,-90.077 -59.599,-144.558c0,-113.038 91.962,-205 205,-205s205,91.962 205,205s-91.962,205 -205,205z"/>
      <path id="svg_8" fill="#231F20" d="m299.676,226.036c-0.03,-0.03 -0.06,-0.06 -0.09,-0.089c-3.811,-3.722 -8.825,-5.772 -14.12,-5.772c-5.336,0 -10.355,2.078 -14.137,5.854l-14.136,14.133l-42.442,-42.369l14.128,-14.124c7.806,-7.816 7.804,-20.528 -0.004,-28.337l-49.502,-49.502c-3.776,-3.775 -8.791,-5.854 -14.122,-5.854s-10.346,2.079 -14.122,5.855l-45.997,46.002c-2.187,2.188 -3.238,5.265 -2.847,8.334c0.247,1.931 6.819,48.078 75.642,116.9c68.737,68.837 115.004,75.311 116.94,75.552c0.414,0.052 0.828,0.077 1.24,0.077c2.635,0 5.184,-1.042 7.07,-2.929l45.869,-45.869c3.837,-3.773 5.951,-8.807 5.954,-14.184c0.003,-5.387 -2.111,-10.433 -5.955,-14.217l-49.369,-49.461zm35.243,63.702l-42.037,42.037c-12.251,-3.318 -48.967,-16.926 -100.811,-68.846c-51.381,-51.381 -65.411,-88.542 -68.894,-100.863l42.051,-42.095l49.503,49.559l-21.201,21.196c-1.877,1.876 -2.931,4.422 -2.93,7.076s1.057,5.198 2.935,7.073l56.597,56.499c3.906,3.899 10.232,3.897 14.135,-0.005l21.197,-21.194c0.04,0 0.079,0.02 0.128,0.063l49.332,49.424c0.011,0.011 0.023,0.023 0.035,0.035c-0.013,0.014 -0.027,0.028 -0.04,0.041z"/>
     </g>
    </g>
   </g>
  </g>
  <g id="svg_9"/>
  <g id="svg_10"/>
  <g id="svg_11"/>
  <g id="svg_12"/>
  <g id="svg_13"/>
  <g id="svg_14"/>
  <g id="svg_15"/>
  <g id="svg_16"/>
  <g id="svg_17"/>
  <g id="svg_18"/>
  <g id="svg_19"/>
  <g id="svg_20"/>
  <g id="svg_21"/>
  <g id="svg_22"/>
  <g id="svg_23"/>
 </g>
</svg>