<?xml version="1.0" encoding="iso-8859-1"?>
<!-- Generator: Adobe Illustrator 19.0.0, SVG Export Plug-In . SVG Version: 6.00 Build 0)  -->
<svg version="1.1" id="Layer_1" xmlns="http://www.w3.org/2000/svg" xmlns:xlink="http://www.w3.org/1999/xlink" x="0px" y="0px"
	 viewBox="0 0 512 512" style="enable-background:new 0 0 512 512;" xml:space="preserve">
<g>
	
		<rect x="101.976" y="129.198" transform="matrix(-0.9574 0.2887 -0.2887 -0.9574 303.4178 376.4357)" style="fill:#D9A460;" width="43.943" height="162.793"/>
	
		<rect x="178.904" y="134.607" transform="matrix(-0.9574 0.2887 -0.2887 -0.9574 455.5593 364.8137)" style="fill:#D9A460;" width="43.945" height="162.793"/>
	
		<rect x="324.88" y="141.829" transform="matrix(-0.9388 -0.3446 0.3446 -0.9388 595.5435 552.309)" style="fill:#D9A460;" width="43.947" height="162.803"/>
</g>
<g>
	
		<rect x="59.011" y="142.191" transform="matrix(-0.7071 0.7071 -0.7071 -0.7071 296.3475 324.425)" style="fill:#F2D383;" width="43.945" height="162.794"/>
	
		<rect x="146.52" y="156.102" transform="matrix(-0.8825 0.4703 -0.4703 -0.8825 428.8836 367.8506)" style="fill:#F2D383;" width="43.945" height="162.795"/>
	
		<rect x="223.444" y="117.765" transform="matrix(-0.89 -0.4559 0.4559 -0.89 373.0439 488.3076)" style="fill:#F2D383;" width="43.945" height="162.791"/>
	
		<rect x="294.025" y="141.808" transform="matrix(-0.9806 -0.1958 0.1958 -0.9806 582.1723 503.9594)" style="fill:#F2D383;" width="43.943" height="162.789"/>
</g>
<rect x="247.334" y="142.194" transform="matrix(0.9684 -0.2496 0.2496 0.9684 -47.2838 74.2921)" style="fill:#D9A460;" width="43.948" height="162.804"/>
<rect x="378.189" y="124.493" transform="matrix(-0.8247 -0.5655 0.5655 -0.8247 613.7518 601.9903)" style="fill:#F2D383;" width="43.944" height="162.789"/>
<rect x="409.051" y="151.388" transform="matrix(-0.7071 -0.7071 0.7071 -0.7071 571.1993 702.1685)" style="fill:#D9A460;" width="43.945" height="162.794"/>
<path style="fill:#B3874F;" d="M462.905,365.802c-5.766,16.225-24.574,29.499-41.792,29.499H98.299
	c-17.218,0-36.025-13.274-41.792-29.499L20.27,263.856c-5.767-16.226,3.603-29.499,20.822-29.499h437.229
	c17.218,0,26.588,13.274,20.822,29.498L462.905,365.802z"/>
<path style="fill:#D9A460;" d="M442.85,288.076H316.841v-22.698c0-3.027-2.453-5.478-5.478-5.478c-3.024,0-5.478,2.453-5.478,5.478
	v22.698h-50.092v-22.698c0-3.027-2.452-5.478-5.478-5.478s-5.478,2.453-5.478,5.478v22.698h-39.916
	c-3.027,0-5.478,2.453-5.478,5.478s2.452,5.478,5.478,5.478h39.916v43.831h-82.181c-3.027,0-5.479,2.452-5.479,5.478
	c0,3.027,2.453,5.478,5.479,5.478h82.181v19.567c0,3.027,2.452,5.478,5.478,5.478c3.027,0,5.478-2.452,5.478-5.478V353.82h109.573
	v21.523c0,3.027,2.453,5.478,5.481,5.478c3.025,0,5.478-2.453,5.478-5.478V353.82h24.26c3.028,0,5.481-2.452,5.481-5.478
	c0-3.026-2.453-5.478-5.481-5.478h-24.26V321.34c0-3.027-2.453-5.479-5.478-5.479c-3.028,0-5.481,2.453-5.481,5.479v21.523H255.792
	v-43.831h50.092v20.35c0,3.025,2.454,5.478,5.478,5.478c3.025,0,5.478-2.453,5.478-5.478v-20.35H442.85
	c3.024,0,5.478-2.453,5.478-5.478C448.329,290.528,445.876,288.076,442.85,288.076z"/>
<polygon style="fill:#997443;" points="69.948,234.358 142.915,307.324 215.883,234.358 "/>
<polygon style="fill:#FFFFFF;" points="88.854,234.358 146.885,292.391 204.919,234.358 "/>
<path d="M512,190.773c0-2.093-0.831-4.101-2.312-5.582l-31.075-31.073c-1.754-1.755-4.13-2.507-6.42-2.262
	c0.229-2.735-0.971-5.513-3.397-7.176l-36.243-24.851c-1.728-1.184-3.852-1.631-5.91-1.25c-2.057,0.384-3.879,1.569-5.063,3.296
	l-19.394,28.286c-0.897-1.421-2.246-2.572-3.945-3.196l-41.253-15.143c-1.963-0.722-4.136-0.632-6.035,0.246
	c-1.899,0.88-3.372,2.477-4.094,4.443l-0.618,1.684l-34.285-6.844c-1.349-0.27-2.687-0.177-3.913,0.209
	c-0.643-0.74-1.43-1.374-2.355-1.849l-39.114-20.034c-3.878-1.985-8.635-0.455-10.622,3.426l-12.823,25.034l-17.362,4.476
	c-4.221,1.088-6.76,5.392-5.673,9.613l5.295,20.544l-3.995,7.798l-15.417-51.123c-1.259-4.174-5.663-6.537-9.835-5.277
	l-42.075,12.688c-2.005,0.604-3.686,1.98-4.675,3.824c-0.99,1.845-1.206,4.007-0.602,6.011l0.23,0.765
	c-1.063,0.078-2.128,0.369-3.13,0.903l-8.189,4.364l-8.65-28.685c-0.604-2.004-1.98-3.685-3.824-4.676
	c-1.845-0.99-4.006-1.207-6.011-0.602l-42.074,12.689c-2.004,0.604-3.685,1.98-4.676,3.824c-0.99,1.845-1.206,4.006-0.602,6.011
	l13.364,44.315l-40.679-40.68c-3.082-3.082-8.08-3.082-11.162,0L2.312,175.99C0.831,177.47,0,179.477,0,181.571
	s0.831,4.101,2.312,5.581l39.313,39.313h-0.532c-10.806,0-20.092,4.376-25.478,12.006c-5.386,7.63-6.4,17.846-2.781,28.03
	l36.238,101.945c6.925,19.485,28.55,34.748,49.229,34.748h322.814c20.679,0,42.304-15.263,49.228-34.748l36.24-101.948
	c3.618-10.182,2.605-20.398-2.781-28.028c-5.181-7.339-13.974-11.655-24.253-11.974l30.143-30.143
	C511.169,194.874,512,192.866,512,190.773z M430.134,137.309l23.225,15.925l-32.664,47.64l-25.592,25.592h-26.1L430.134,137.309z
	 M361.065,150.133l24.327,8.93l-12.31,33.542l-23.217,33.86h-4.041L361.065,150.133z M316.603,148.375l27.615,5.513l-14.491,72.577
	h-28.717L316.603,148.375z M266.401,127.323l25.064,12.838l-8.515,16.625l-5.019-19.471c-0.522-2.027-1.829-3.763-3.632-4.827
	c-1.803-1.065-3.958-1.367-5.981-0.846l-4.759,1.227L266.401,127.323z M297.64,162.734l-5.743,28.763l-3.01-11.676L297.64,162.734z
	 M264.616,148.898l19.993,77.567h-29.081l-18.181-70.538L264.616,148.898z M231.325,195.803l7.903,30.662h-23.609L231.325,195.803z
	 M193.144,141.558l17.873,59.269l-13.132,25.638h-1.423l-16.416-30.802l-13.864-45.975L193.144,141.558z M185.865,242.25
	l-38.979,38.979l-38.978-38.979L185.865,242.25L185.865,242.25z M146.349,165.999l32.227,60.466h-31.91l-25.168-47.222
	L146.349,165.999z M116.216,136.151l7.28,24.14l-16.386,8.732c-1.847,0.985-3.228,2.662-3.838,4.665
	c-0.61,2.003-0.4,4.165,0.585,6.012l24.922,46.763h-2.683l-17.262-17.262l-19.578-64.923L116.216,136.151z M19.055,181.571
	l19.912-19.912l64.806,64.806H63.948L19.055,181.571z M490.903,247.574c2.425,3.433,2.709,8.277,0.805,13.638l-36.239,101.947
	c0,0.001,0,0.001-0.001,0.001c-4.67,13.145-20.405,24.249-34.355,24.249H98.299c-13.951,0-29.683-11.105-34.355-24.25
	L27.706,261.215c-1.906-5.363-1.621-10.208,0.803-13.64c2.424-3.433,6.892-5.324,12.583-5.324h44.493l55.721,55.722
	c1.48,1.481,3.487,2.312,5.581,2.312c2.093,0,4.101-0.831,5.581-2.312l55.721-55.722H478.32
	C484.011,242.25,488.479,244.141,490.903,247.574z M457.254,226.465h-39.825l55.604-55.604l19.914,19.912L457.254,226.465z"/>
<g>
</g>
<g>
</g>
<g>
</g>
<g>
</g>
<g>
</g>
<g>
</g>
<g>
</g>
<g>
</g>
<g>
</g>
<g>
</g>
<g>
</g>
<g>
</g>
<g>
</g>
<g>
</g>
<g>
</g>
</svg>
